Coordinates
version=1
nRows=12
nColumns=46
inDegrees=yes

Units are S.I. units (second, meters, Newtons, ...)
Angles are in degrees.

endheader
time	pelvis_tilt	pelvis_list	pelvis_rotation	pelvis_tx	pelvis_ty	pelvis_tz	bb_angle	bb_tx	bb_ty	bb_tz	hip_flexion_r	hip_adduction_r	hip_rotation_r	knee_angle_r	knee_angle_r_beta	ankle_angle_r	subtalar_angle_r	mtp_angle_r	crank_angle_r	hip_flexion_l	hip_adduction_l	hip_rotation_l	knee_angle_l	knee_angle_l_beta	ankle_angle_l	subtalar_angle_l	mtp_angle_l	crank_angle_l	lumbar_extension	lumbar_bending	lumbar_rotation	arm_flex_r	arm_add_r	arm_rot_r	elbow_flex_r	pro_sup_r	wrist_flex_r	wrist_dev_r	arm_flex_l	arm_add_l	arm_rot_l	elbow_flex_l	pro_sup_l	wrist_flex_l	wrist_dev_l
      0.00000000	    -10.39376518	     -2.65263330	      0.09296138	      0.11480776	      1.14403054	     -0.25945711	      0.00000000	      0.50000000	      0.00000000	      0.25000000	     73.92267246	     -3.02152589	     -3.39502215	     75.72081543	      1.32157754	      0.03449740	     -7.86383186	      0.00000000	      0.00000000	     54.61260635	     -8.83664175	      1.97463085	     89.74726795	      1.56638532	     13.12277001	     -2.33291732	      0.00000000	      0.00000000	    -53.43368118	      2.23781151	      6.37778316	     89.78946790	     -2.34920956	     27.02660425	     28.01953728	     21.06861113	      0.00000000	      0.00000000	     89.67938707	      4.31630593	     23.64018027	     24.73576972	     20.90177993	      0.00000000	      0.00000000
      0.00500000	    -10.42496413	     -2.65802549	      0.07695694	      0.11485744	      1.14397103	     -0.25949080	      0.00000000	      0.50000000	      0.00000000	      0.25000000	     73.93393026	     -2.99726269	     -3.38923526	     75.68879708	      1.32101872	      0.03555221	     -7.85530743	      0.00000000	      0.00000000	     54.65668529	     -8.85075655	      1.96709085	     89.77907422	      1.56694044	     13.12214662	     -2.34281119	      0.00000000	      0.00000000	    -53.42791373	      2.21378656	      6.34608684	     89.78980655	     -2.17901024	     26.13059755	     27.64470294	     23.14806513	      0.00000000	      0.00000000	     89.67847697	      4.39934891	     22.79579547	     24.45784805	     22.98206516	      0.00000000	      0.00000000
      0.01000000	    -10.45637266	     -2.66613258	      0.07616447	      0.11496535	      1.14391062	     -0.25952089	      0.00000000	      0.50000000	      0.00000000	      0.25000000	     73.94306195	     -2.98543450	     -3.39545115	     75.66162157	      1.32054441	      0.01248142	     -7.94175406	      0.00000000	      0.00000000	     54.69646405	     -8.85848635	      1.97673429	     89.80879902	      1.56745924	     13.16705906	     -2.29278492	      0.00000000	      0.00000000	    -53.37677505	      2.18399448	      6.35217153	     89.79242897	     -2.80134945	     28.54092449	     27.62718453	     22.64806136	      0.00000000	      0.00000000	     89.68017205	      4.02961156	     24.80814134	     24.36524830	     22.68588290	      0.00000000	      0.00000000
      0.01500000	    -10.42544648	     -2.66554587	      0.07807507	      0.11499483	      1.14398203	     -0.25942478	      0.00000000	      0.50000000	      0.00000000	      0.25000000	     73.89134089	     -2.96592630	     -3.39245978	     75.64028356	      1.32017200	     -0.00873527	     -8.01489944	      0.00000000	      0.00000000	     54.65216560	     -8.83807055	      1.99638143	     89.80884894	      1.56746011	     13.21114264	     -2.31560796	      0.00000000	      0.00000000	    -53.45918109	      2.14549684	      6.38328351	     89.79152728	     -2.69248836	     27.35567028	     27.64058132	     23.75352727	      0.00000000	      0.00000000	     89.67924066	      4.23953005	     23.90858701	     24.31514662	     23.80366256	      0.00000000	      0.00000000
      0.02000000	    -10.62367673	     -2.75943252	      0.10353010	      0.11506427	      1.14343454	     -0.25937731	      0.00000000	      0.50000000	      0.00000000	      0.25000000	     74.07389573	     -2.90427482	     -3.41790567	     75.60482998	      1.31955321	     -0.05236715	     -8.06655368	      0.00000000	      0.00000000	     55.02477037	     -8.94372373	      2.11107388	     90.00326576	      1.57085332	     13.14662913	     -2.09862007	      0.00000000	      0.00000000	    -53.27710340	      2.23425655	      6.38794600	     89.78861154	     -2.30606461	     25.64132348	     27.42453497	     25.29515708	      0.00000000	      0.00000000	     89.67796806	      4.54674496	     22.24673302	     24.17591336	     25.18443577	      0.00000000	      0.00000000
      0.02500000	    -10.57913829	     -2.71985324	      0.11517045	      0.11503415	      1.14358562	     -0.25931916	      0.00000000	      0.50000000	      0.00000000	      0.25000000	     74.00977446	     -2.91368270	     -3.37435898	     75.57418114	      1.31901829	     -0.04570743	     -8.05400019	      0.00000000	      0.00000000	     54.97342738	     -8.92235995	      2.07828786	     89.99621349	      1.57073024	     13.12214225	     -2.08767615	      0.00000000	      0.00000000	    -53.34629096	      2.18004477	      6.36855405	     89.78882234	     -2.33853128	     25.30307140	     27.51750322	     25.07138039	      0.00000000	      0.00000000	     89.67870770	      4.60292826	     22.06493371	     24.27967760	     24.93175308	      0.00000000	      0.00000000
      0.03000000	    -10.57059036	     -2.71300687	      0.14439622	      0.11514061	      1.14364042	     -0.25940344	      0.00000000	      0.50000000	      0.00000000	      0.25000000	     73.97603046	     -2.94984691	     -3.38261300	     75.56780018	      1.31890692	     -0.00536512	     -8.02205029	      0.00000000	      0.00000000	     54.96080722	     -8.88133553	      2.09254075	     90.00802886	      1.57093646	     13.11639747	     -2.14889971	      0.00000000	      0.00000000	    -53.37211099	      2.18620855	      6.26792121	     89.79228484	     -2.79573795	     27.72476998	     28.58012167	     19.19899695	      0.00000000	      0.00000000	     89.67896282	      3.95469928	     25.12016570	     25.18581835	     19.62593773	      0.00000000	      0.00000000
      0.03500000	    -10.66988599	     -2.71891486	      0.12260201	      0.11523685	      1.14343703	     -0.25937522	      0.00000000	      0.50000000	      0.00000000	      0.25000000	     74.06324182	     -2.90276778	     -3.36535137	     75.52488306	      1.31815788	     -0.15439759	     -8.25679058	      0.00000000	      0.00000000	     55.07487371	     -8.90897046	      2.09540921	     90.04934012	      1.57165747	     13.23466499	     -1.95763707	      0.00000000	      0.00000000	    -53.30257127	      2.14524387	      6.28685316	     89.78819536	     -2.42938501	     25.51305319	     27.97967427	     23.08371102	      0.00000000	      0.00000000	     89.67762476	      4.40644256	     22.85573574	     24.70464281	     23.07167205	      0.00000000	      0.00000000
      0.04000000	    -10.75602968	     -2.73814128	      0.11620919	      0.11553412	      1.14329248	     -0.25955563	      0.00000000	      0.50000000	      0.00000000	      0.25000000	     74.11148088	     -2.91591529	     -3.37580538	     75.51597078	      1.31800233	      0.03938167	     -8.00224469	      0.00000000	      0.00000000	     55.16444241	     -8.90999559	      2.08825473	     90.08141261	      1.57221724	     13.17026225	     -2.14845808	      0.00000000	      0.00000000	    -53.18760530	      2.16059766	      6.28586935	     89.79065561	     -2.92647518	     27.84006839	     28.49006786	     19.21727744	      0.00000000	      0.00000000	     89.67516011	      3.99022508	     25.05090460	     25.14876473	     19.63375450	      0.00000000	      0.00000000
      0.04500000	    -10.63407378	     -2.86899192	      0.12078504	      0.11564519	      1.14365314	     -0.25953066	      0.00000000	      0.50000000	      0.00000000	      0.25000000	     73.90281109	     -2.83108645	     -3.51184972	     75.42206813	      1.31636342	     -0.12918421	     -8.34604714	      0.00000000	      0.00000000	     55.04736000	     -9.03392447	      2.19820179	     90.11160648	      1.57274423	     13.31953738	     -1.82504249	      0.00000000	      0.00000000	    -53.42722014	      2.22042276	      6.48913634	     89.78793422	     -2.91615720	     26.48592484	     28.64157849	     21.20841210	      0.00000000	      0.00000000	     89.67317864	      4.28074124	     23.77718713	     25.23420857	     21.27656789	      0.00000000	      0.00000000
      0.05000000	    -10.86058599	     -2.78457914	      0.14490781	      0.11578955	      1.14312177	     -0.25972961	      0.00000000	      0.50000000	      0.00000000	      0.25000000	     74.16082940	     -2.92832102	     -3.41633455	     75.46445467	      1.31710320	      0.05002018	     -8.00092722	      0.00000000	      0.00000000	     55.29798225	     -8.89357257	      2.15912114	     90.15417544	      1.57348720	     13.23986783	     -2.14578052	      0.00000000	      0.00000000	    -53.11495625	      2.18321430	      6.28863994	     89.79030296	     -3.15493829	     28.31505610	     28.12139601	     21.33470935	      0.00000000	      0.00000000	     89.67430976	      4.05630684	     24.66800085	     24.87799710	     21.42060498	      0.00000000	      0.00000000
      0.05500000	    -10.91804361	     -2.79604198	      0.15237449	      0.11589040	      1.14299986	     -0.25981957	      0.00000000	      0.50000000	      0.00000000	      0.25000000	     74.20218517	     -2.93746856	     -3.42745489	     75.45236879	      1.31689226	      0.07999129	     -7.95157576	      0.00000000	      0.00000000	     55.37600679	     -8.88481578	      2.17655611	     90.19274859	      1.57416042	     13.25016657	     -2.19413281	      0.00000000	      0.00000000	    -53.09454173	      2.20224572	      6.27714858	     89.78832840	     -2.82418296	     26.78174886	     27.99689236	     22.56183984	      0.00000000	      0.00000000	     89.67125482	      4.31312270	     23.12196083	     24.83224924	     22.46129810	      0.00000000	      0.00000000
